<svg xmlns="http://www.w3.org/2000/svg" width="161" height="77" viewBox="0 0 162 77" fill="none">
  <path d="M120.95 63.8624L121.164 62.6514L148.535 67.4774L148.322 68.6894L120.95 63.8624ZM122.95 59.6184L126.116 58.3394L126.107 58.3214C126.12 58.2944 126.134 58.2934 126.158 58.2934L126.171 58.3174L148.722 49.2074L149.183 50.3474L123.412 60.7594L122.95 59.6184ZM118.937 57.3254L120.122 40.3394L121.349 40.4254L120.165 57.4114L118.937 57.3254ZM124.011 38.3524L124.329 37.1644L151.175 44.3524L150.857 45.5404L124.011 38.3524ZM149.698 24.5284L150.919 24.3784L152.994 41.2784L151.773 41.4284L149.698 24.5284ZM122.687 35.5744L146.996 22.0994L147.596 23.1754L123.283 36.6524L122.687 35.5744ZM134.705 8.82144L135.575 7.95144L147.615 19.9914L146.745 20.8614L134.705 8.82144ZM100.886 19.2144L134.492 4.25244L134.992 5.37644L101.386 20.3384L100.886 19.2144ZM74.1221 18.5884V17.3584H101.916V18.5884H74.1221Z" fill="#9A9A9A"/>
  <path d="M45.838 51.6149V13.5619L50.109 12.8149C50.1301 12.8238 50.1502 12.8349 50.169 12.8479C50.1779 12.8583 50.184 12.8706 50.187 12.8839C50.1935 12.9099 50.1979 12.9363 50.2 12.9629C50.2 13.0039 50.2 13.0449 50.2 13.0859C50.2 17.2673 50.2 21.4483 50.2 25.6289C50.2003 25.6426 50.2026 25.656 50.207 25.6689C50.207 25.6819 50.219 25.6939 50.25 25.7549C50.373 25.7019 50.502 25.6449 50.632 25.5929C51.8436 25.0788 53.1562 24.8469 54.4707 24.9148C55.7851 24.9827 57.0668 25.3487 58.219 25.9849C59.7 26.8121 60.8714 28.0989 61.556 29.6509C62.201 31.0238 62.642 32.4836 62.865 33.9839C63.2273 36.3073 63.3313 38.6637 63.175 41.0099C63.0999 43.0187 62.7227 45.0046 62.056 46.9009C61.7352 47.7848 61.3045 48.6247 60.774 49.4009C60.1325 50.3042 59.3161 51.0692 58.3732 51.6507C57.4302 52.2322 56.3801 52.6183 55.285 52.7859C54.4751 52.9305 53.6537 53.0002 52.831 52.9939C50.4316 53.003 48.0543 52.5343 45.838 51.6149ZM50.6 29.4059C50.4682 29.4498 50.356 29.5384 50.2829 29.6565C50.2099 29.7745 50.1805 29.9145 50.2 30.0519C50.211 35.0789 50.208 40.1059 50.208 45.2149V48.7639C51.301 49.0881 52.4469 49.1951 53.581 49.0789C54.4856 48.9979 55.3457 48.6498 56.052 48.0789C56.7478 47.5 57.2875 46.756 57.622 45.9149C58.0499 44.8359 58.3265 43.7028 58.444 42.5479C58.6183 41.0142 58.6814 39.4698 58.633 37.9269C58.6252 36.4792 58.4782 35.0356 58.194 33.6159C58.0003 32.5527 57.6012 31.5374 57.019 30.6269C56.7326 30.1845 56.3596 29.8047 55.9223 29.5104C55.4851 29.2162 54.9927 29.0136 54.475 28.9149C54.0907 28.8387 53.6998 28.8002 53.308 28.7999C52.3729 28.8103 51.4503 29.0167 50.6 29.4059ZM29.342 52.8799C28.1658 52.8422 27.0053 52.5989 25.913 52.1609C24.7491 51.7028 23.7264 50.9463 22.9477 49.9675C22.169 48.9886 21.6617 47.822 21.477 46.5849C21.1589 44.9959 21.224 43.3538 21.667 41.7949C22.0165 40.4491 22.7462 39.2325 23.7689 38.2904C24.7916 37.3484 26.0641 36.7209 27.434 36.4829C28.7752 36.2081 30.154 36.1678 31.509 36.3639C32.117 36.4389 32.722 36.5379 33.346 36.6289C33.3604 36.5506 33.3698 36.4715 33.374 36.3919C33.368 35.3919 33.393 34.3919 33.339 33.4009C33.296 32.7892 33.1956 32.1829 33.039 31.5899C32.922 31.0903 32.6879 30.6256 32.3562 30.2341C32.0245 29.8426 31.6046 29.5355 31.131 29.3379C30.5165 29.0777 29.8573 28.9395 29.19 28.9309C27.7248 28.8883 26.2675 29.1611 24.917 29.7309C24.794 29.7819 24.667 29.8229 24.517 29.8799L23.605 26.1799C23.705 26.1299 23.799 26.0799 23.897 26.0379C25.8371 25.2441 27.923 24.8693 30.018 24.9379C31.3347 24.9589 32.6272 25.2953 33.787 25.9189C34.7244 26.4345 35.5334 27.1549 36.1537 28.0265C36.7741 28.8981 37.1898 29.8984 37.37 30.9529C37.5744 31.9435 37.6749 32.9526 37.67 33.9639C37.6773 39.7846 37.6773 45.6053 37.67 51.4259V51.7899C37.131 51.9239 36.608 52.0649 36.08 52.1849C34.1876 52.6397 32.2501 52.8806 30.304 52.9029C29.986 52.9036 29.6653 52.8959 29.342 52.8799ZM28.914 40.0209C28.135 40.1269 27.4118 40.4843 26.8545 41.0387C26.2971 41.5932 25.936 42.3145 25.826 43.0929C25.6659 43.9672 25.6565 44.8625 25.798 45.7399C25.8845 46.5275 26.2234 47.2659 26.7641 47.8449C27.3048 48.424 28.0183 48.8127 28.798 48.9529C29.9117 49.1718 31.0562 49.1834 32.174 48.9869C32.574 48.9319 32.968 48.8459 33.361 48.7739V40.2829C32.4804 40.0395 31.5741 39.9006 30.661 39.8689C30.079 39.9149 29.488 39.9149 28.914 40.0209ZM100.34 52.2969C100.333 52.2119 100.32 52.1219 100.32 52.0319C100.32 43.2606 100.324 34.4766 100.331 25.6799C100.401 25.6287 100.485 25.5985 100.572 25.5929C101.87 25.5929 103.168 25.5929 104.466 25.5929C104.531 25.5929 104.596 25.6039 104.677 25.6109V52.2619C104.503 52.3089 103.301 52.3379 102.17 52.3379C101.423 52.3379 100.707 52.3259 100.34 52.2969ZM70.176 52.3019V25.6149H74.552V52.3049L70.176 52.3019ZM7.82 52.3019V20.9709H0V17.0569H20.216V20.9659H12.416V52.2979L7.82 52.3019ZM83.074 52.3019V26.7779C84.0207 26.3219 85.0089 25.9576 86.025 25.6899C87.6456 25.2513 89.3218 25.0528 91 25.1009C92.3266 25.0912 93.6475 25.2769 94.92 25.6519C95.061 25.6979 95.201 25.7469 95.382 25.8079L94.622 29.5759C92.3195 28.6597 89.7563 28.6443 87.443 29.5329V52.2929L83.074 52.3019Z" fill="#1A45D2"/>
  <path d="M56.9631 76.1809C56.33 76.0224 55.7531 75.6919 55.2961 75.2259L56.0511 74.0099C56.1661 74.0999 56.2661 74.1809 56.3681 74.2599C56.6984 74.5269 57.0817 74.7205 57.4926 74.8277C57.9035 74.935 58.3325 74.9535 58.7511 74.8819C59.0095 74.8474 59.2585 74.7621 59.4837 74.6308C59.7089 74.4995 59.9059 74.3248 60.0631 74.1169C60.3331 73.7406 60.5776 73.3467 60.7951 72.9379C60.9541 72.6529 61.0551 72.3379 61.2091 72.0479C61.2689 71.9426 61.3003 71.8235 61.3003 71.7024C61.3003 71.5813 61.2689 71.4622 61.2091 71.3569C60.5561 69.9309 59.9191 68.4969 59.2781 67.0659C58.2115 64.6886 57.1468 62.3106 56.0841 59.9319C56.0291 59.8079 55.9841 59.6809 55.9161 59.5269H57.6411L62.2281 69.8639L66.8121 59.5189H68.4511C68.2131 60.0569 67.9911 60.5629 67.7651 61.0679C65.9411 65.1539 64.1168 69.2396 62.2921 73.3249C62.0388 73.9155 61.709 74.4702 61.3111 74.9749C61.0194 75.3472 60.6561 75.6574 60.2428 75.8874C59.8294 76.1173 59.3743 76.2623 58.9041 76.3139C58.6719 76.3426 58.4381 76.3573 58.2041 76.3579C57.784 76.3599 57.3659 76.3003 56.9631 76.1809ZM72.7631 71.5369C72.2383 71.3259 71.785 70.9688 71.4569 70.508C71.1288 70.0471 70.9398 69.5019 70.9121 68.9369C70.8991 68.8419 70.8981 68.7459 70.8911 68.6109C70.8911 66.6449 70.8821 64.7189 70.8791 62.7929C70.8791 62.1799 70.8791 61.5679 70.8791 60.9159H68.7211V59.5129H70.8621V56.8449H72.5201V59.4809H76.2321V60.8969H72.5651C72.5561 61.0309 72.5421 61.1359 72.5421 61.2399C72.5421 63.5219 72.5351 65.8029 72.5481 68.0849C72.5496 68.4522 72.6011 68.8175 72.7011 69.1709C72.7858 69.4764 72.9576 69.7507 73.1956 69.9603C73.4335 70.1698 73.7273 70.3055 74.0411 70.3509C74.4614 70.4413 74.8963 70.4388 75.3155 70.3437C75.7347 70.2485 76.1281 70.0629 76.4681 69.7999L77.0601 70.9899C76.8588 71.144 76.6462 71.2827 76.4241 71.4049C75.8033 71.7011 75.125 71.8575 74.4371 71.8629C73.8643 71.8603 73.297 71.7497 72.7651 71.5369H72.7631ZM40.6091 71.5369C40.2392 71.3718 39.8795 71.1844 39.5321 70.9759C39.127 70.679 38.7939 70.2948 38.5574 69.8517C38.3209 69.4086 38.187 68.918 38.1657 68.4162C38.1444 67.9144 38.2361 67.4143 38.4342 66.9527C38.6324 66.4912 38.9317 66.0801 39.3101 65.7499C39.8861 65.3053 40.5717 65.025 41.2941 64.9389C41.8348 64.8648 42.3795 64.8234 42.9251 64.8149C43.7011 64.8019 44.4771 64.8049 45.2531 64.8069H46.3271C46.4601 64.8069 46.5941 64.7959 46.7521 64.7889C46.8385 64.064 46.7626 63.3289 46.5301 62.6369C46.3461 62.1614 46.0313 61.7476 45.6219 61.4436C45.2126 61.1396 44.7255 60.9576 44.2171 60.9189C43.3716 60.7835 42.5072 60.8238 41.6779 61.0373C40.8486 61.2508 40.0722 61.633 39.3971 62.1599C39.3651 62.1849 39.3321 62.2089 39.2971 62.2299C39.2871 62.2369 39.2711 62.2299 39.2101 62.2369L38.4971 61.0579C38.5971 60.9729 38.6811 60.8899 38.7761 60.8199C39.7482 60.1577 40.8509 59.7117 42.01 59.5119C43.1691 59.3121 44.3575 59.3633 45.4951 59.6619C46.2611 59.8652 46.9459 60.2993 47.4567 60.9052C47.9674 61.5112 48.2794 62.2596 48.3501 63.0489C48.4046 63.4412 48.4307 63.8369 48.4281 64.2329C48.4351 66.5699 48.4281 68.9059 48.4281 71.2429V71.7049H46.8431V70.0239L46.7641 69.9999C46.7331 70.0339 46.6991 70.0659 46.6721 70.0999C46.3379 70.5441 45.9188 70.9175 45.4392 71.1985C44.9596 71.4795 44.429 71.6625 43.8781 71.7369C43.4582 71.8112 43.0326 71.849 42.6061 71.8499C41.9291 71.8507 41.256 71.7461 40.6111 71.5399L40.6091 71.5369ZM42.9461 66.0589C42.3591 66.0416 41.7733 66.121 41.2121 66.2939C40.9574 66.3655 40.7198 66.488 40.5136 66.654C40.3075 66.82 40.1372 67.0261 40.0129 67.2597C39.8886 67.4933 39.8129 67.7497 39.7905 68.0134C39.768 68.2771 39.7992 68.5426 39.8821 68.7939C39.9757 69.1673 40.1702 69.5078 40.4443 69.7782C40.7184 70.0485 41.0615 70.2384 41.4361 70.3269C42.0903 70.5306 42.7809 70.5896 43.4601 70.4999C44.1385 70.4594 44.7931 70.2352 45.3539 69.8514C45.9148 69.4676 46.3607 68.9386 46.6441 68.3209C46.7075 68.2164 46.7487 68.1 46.7651 67.9789C46.7771 67.3549 46.7711 66.7299 46.7711 66.0609H42.9471L42.9461 66.0589ZM97.5551 71.1589C97.0319 70.9664 96.548 70.6804 96.1271 70.3149L96.8661 69.0209C97.4252 69.424 98.0409 69.7422 98.6931 69.9649C99.9629 70.4089 101.328 70.5073 102.648 70.2499C103.035 70.173 103.405 70.0259 103.739 69.8159C104.027 69.639 104.252 69.3753 104.381 69.0627C104.51 68.75 104.537 68.4046 104.457 68.0759C104.428 67.9075 104.365 67.7467 104.272 67.6028C104.18 67.459 104.06 67.3349 103.919 67.2379C103.444 66.9182 102.907 66.7038 102.342 66.6089C101.151 66.3439 99.9911 66.0989 98.8361 65.8309C98.4008 65.711 97.9932 65.5072 97.6361 65.2309C97.3232 64.9623 97.0672 64.6339 96.883 64.2649C96.6988 63.896 96.5903 63.4939 96.5637 63.0824C96.5372 62.6709 96.5932 62.2582 96.7284 61.8687C96.8636 61.4791 97.0753 61.1205 97.3511 60.8139C98.0036 60.1421 98.8542 59.697 99.7781 59.5439C101.535 59.2161 103.35 59.4198 104.99 60.1289C105.165 60.2029 105.331 60.2999 105.499 60.3909C105.569 60.4289 105.634 60.4789 105.733 60.5459L105.018 61.8669C104.894 61.7919 104.795 61.7289 104.693 61.6669C103.241 60.8399 101.527 60.6002 99.9041 60.9969C99.4492 61.098 99.0327 61.3274 98.7041 61.6579C98.5344 61.8273 98.4042 62.0321 98.3227 62.2576C98.2413 62.4832 98.2105 62.7239 98.2328 62.9627C98.2551 63.2015 98.3297 63.4324 98.4515 63.639C98.5732 63.8456 98.739 64.0228 98.9371 64.1579C99.341 64.4145 99.7894 64.5929 100.259 64.6839C101.285 64.9079 102.314 65.1149 103.338 65.3459C103.684 65.424 104.022 65.5297 104.351 65.6619C104.822 65.8571 105.235 66.1706 105.55 66.5721C105.865 66.9736 106.071 67.4495 106.148 67.9538C106.225 68.4581 106.171 68.9737 105.99 69.4509C105.81 69.9281 105.51 70.3507 105.118 70.6779C104.409 71.2411 103.561 71.6031 102.664 71.7259C102.14 71.8055 101.611 71.846 101.081 71.8469C99.8727 71.852 98.675 71.6196 97.5561 71.1629L97.5551 71.1589ZM86.6291 70.7589C85.9259 70.2813 85.3355 69.6559 84.8994 68.9262C84.4632 68.1966 84.1918 67.3804 84.1041 66.5349C83.9225 65.3257 84.0868 64.0897 84.5781 62.9699C84.9519 62.0851 85.5412 61.3079 86.2923 60.7092C87.0433 60.1104 87.9323 59.7091 88.8781 59.5419C90.1935 59.2466 91.5673 59.355 92.8201 59.8529C93.7184 60.2025 94.4867 60.8211 95.0201 61.6239C95.0561 61.6779 95.0871 61.7359 95.1411 61.8239L93.9201 62.6519C93.7631 62.4639 93.6311 62.2899 93.4821 62.1319C93.0578 61.6832 92.5384 61.3353 91.9619 61.1138C91.3855 60.8923 90.7667 60.8028 90.1511 60.8519C89.3182 60.8415 88.5004 61.0755 87.7991 61.525C87.0977 61.9745 86.5435 62.6197 86.2051 63.3809C86.0027 63.8275 85.8646 64.3005 85.7951 64.7859C85.6303 65.7479 85.738 66.7369 86.1061 67.6409C86.3652 68.29 86.7795 68.8658 87.3125 69.3178C87.8456 69.7699 88.4814 70.0844 89.1641 70.2339C90.0721 70.4389 91.0186 70.3957 91.9041 70.1089C92.6226 69.8736 93.2536 69.4276 93.7151 68.8289C93.7731 68.7539 93.8331 68.6809 93.9151 68.5789L95.1411 69.4109C94.8436 69.9305 94.441 70.3825 93.9591 70.7379C93.1757 71.3207 92.2494 71.681 91.2781 71.7809C90.9416 71.8208 90.603 71.8411 90.2641 71.8419C88.97 71.8662 87.7002 71.4881 86.6301 70.7599L86.6291 70.7589ZM20.3291 71.7129C19.8611 70.6739 19.3911 69.6299 18.9101 68.5569C18.7301 68.1569 18.5611 67.7849 18.3871 67.3999H9.32312L7.37812 71.7139H5.57812L13.0141 55.4449H14.7231L22.1601 71.7139L20.3291 71.7129ZM9.97312 65.9529H17.7401C16.5341 63.2529 15.3471 60.5929 14.1401 57.8769L13.8561 57.2689L9.97312 65.9529ZM52.4131 71.7109V54.4869H54.0581V71.7109H52.4131ZM33.5911 71.7109V67.7249C33.5911 66.7409 33.6081 65.7979 33.5841 64.8559C33.5796 64.3788 33.5267 63.9033 33.4261 63.4369C33.3126 62.8127 33.0053 62.2402 32.5479 61.8006C32.0905 61.361 31.5063 61.0766 30.8781 60.9879C30.1499 60.8478 29.4004 60.8622 28.6781 61.0299C27.9112 61.1976 27.2153 61.5996 26.6869 62.1803C26.1586 62.7609 25.8238 63.4916 25.7291 64.2709C25.675 64.6492 25.6473 65.0308 25.6461 65.4129C25.6381 67.3529 25.6461 69.2929 25.6461 71.2339V71.7049H24.0171V59.5279H25.5561V61.6489C25.627 61.5866 25.6938 61.5198 25.7561 61.4489C26.1753 60.8812 26.7106 60.4092 27.3263 60.0644C27.942 59.7196 28.6241 59.5098 29.3271 59.4489C30.2228 59.3177 31.1363 59.3815 32.0051 59.6359C32.8415 59.8676 33.5887 60.346 34.1492 61.0087C34.7097 61.6714 35.0574 62.4876 35.1471 63.3509C35.2103 63.7555 35.2417 64.1644 35.2411 64.5739C35.2501 66.8419 35.2411 69.1099 35.2411 71.3739C35.2411 71.4799 35.2311 71.5859 35.2241 71.7059L33.5911 71.7109ZM79.5301 71.7109V59.5219H81.1721V71.7099L79.5301 71.7109ZM79.2301 56.0259C79.1385 55.7587 79.1468 55.4673 79.2535 55.2057C79.3601 54.9441 79.5578 54.73 79.8101 54.6029C79.9201 54.5566 80.0334 54.5188 80.1491 54.4899C80.3083 54.4762 80.4684 54.4782 80.6271 54.4959C80.8995 54.5363 81.1476 54.675 81.3248 54.8857C81.502 55.0964 81.596 55.3647 81.5891 55.6399C81.5897 55.9218 81.4899 56.1946 81.3076 56.4096C81.1252 56.6245 80.8723 56.7675 80.5941 56.8129C80.5256 56.8235 80.4564 56.8288 80.3871 56.8289C80.1337 56.8336 79.8852 56.7584 79.677 56.6139C79.4688 56.4694 79.3114 56.263 79.2271 56.0239L79.2301 56.0259Z" fill="#FD644C"/>
  <path d="M71.9022 22.9417C74.5234 22.9417 76.6482 20.8169 76.6482 18.1957C76.6482 15.5746 74.5234 13.4497 71.9022 13.4497C69.2811 13.4497 67.1562 15.5746 67.1562 18.1957C67.1562 20.8169 69.2811 22.9417 71.9022 22.9417Z" fill="#DF0D73"/>
  <path d="M102.514 22.9443C105.004 22.9443 107.023 20.9255 107.023 18.4353C107.023 15.945 105.004 13.9263 102.514 13.9263C100.024 13.9263 98.0049 15.945 98.0049 18.4353C98.0049 20.9255 100.024 22.9443 102.514 22.9443Z" fill="#40C07F"/>
  <path d="M149.499 26.2634C152.251 26.2634 154.482 24.0324 154.482 21.2804C154.482 18.5283 152.251 16.2974 149.499 16.2974C146.747 16.2974 144.516 18.5283 144.516 21.2804C144.516 24.0324 146.747 26.2634 149.499 26.2634Z" fill="#8C006D"/>
  <path d="M149.499 72.3005C152.251 72.3005 154.482 70.0695 154.482 67.3175C154.482 64.5654 152.251 62.3345 149.499 62.3345C146.747 62.3345 144.516 64.5654 144.516 67.3175C144.516 70.0695 146.747 72.3005 149.499 72.3005Z" fill="#FABE00"/>
  <path d="M119.599 68.9795C123.662 68.9795 126.955 65.5796 126.955 61.3855C126.955 57.1915 123.662 53.7915 119.599 53.7915C115.537 53.7915 112.243 57.1915 112.243 61.3855C112.243 65.5796 115.537 68.9795 119.599 68.9795Z" fill="#00B2E9"/>
  <path d="M121.736 42.8779C125.93 42.8779 129.33 39.478 129.33 35.2839C129.33 31.0899 125.93 27.6899 121.736 27.6899C117.542 27.6899 114.142 31.0899 114.142 35.2839C114.142 39.478 117.542 42.8779 121.736 42.8779Z" fill="#EF7F1B"/>
  <path d="M154.009 54.7406C158.203 54.7406 161.603 51.2346 161.603 46.9096C161.603 42.5847 158.203 39.0786 154.009 39.0786C149.815 39.0786 146.415 42.5847 146.415 46.9096C146.415 51.2346 149.815 54.7406 154.009 54.7406Z" fill="#6CBE00"/>
  <path d="M132.889 12.9766C136.427 12.9766 139.296 10.1081 139.296 6.5696C139.296 3.03111 136.427 0.162598 132.889 0.162598C129.35 0.162598 126.482 3.03111 126.482 6.5696C126.482 10.1081 129.35 12.9766 132.889 12.9766Z" fill="#D5292D"/>
</svg>